<svg preserveAspectRatio="none" width="100%" height="100%" overflow="visible" style="display: block;" viewBox="0 0 12 12" fill="none" xmlns="http://www.w3.org/2000/svg">
<path id="Union" d="M2.76953 0C4.20661 0.000152583 5.38721 1.09503 5.52441 2.49609L5.5957 2.42676C6.67716 1.34538 8.43029 1.34533 9.51172 2.42676C10.5929 3.5082 10.593 5.26139 9.51172 6.34277L9.38867 6.46484C10.8445 6.54678 12 7.75024 12 9.22656C11.9998 10.7558 10.7597 11.9961 9.23047 11.9961H2.84473C2.81972 11.9968 2.7947 12 2.76953 12C1.24013 12 0 10.7599 0 9.23047V2.76953C0 1.24013 1.24013 0 2.76953 0ZM2.76953 0.922852C1.74993 0.922852 0.922852 1.74993 0.922852 2.76953V9.23047C0.922852 10.2501 1.74993 11.0771 2.76953 11.0771C3.789 11.077 4.61523 10.25 4.61523 9.23047V2.76953C4.61523 1.75003 3.789 0.923014 2.76953 0.922852ZM5.03613 10.8174C4.9733 10.907 4.90478 10.9919 4.83203 11.0732H9.23047C10.2499 11.0732 11.076 10.246 11.0762 9.22656C11.0761 8.20699 10.2501 7.38086 9.23047 7.38086H8.47363L5.03613 10.8174ZM2.76953 8.30762C3.27909 8.30778 3.69222 8.72091 3.69238 9.23047C3.69238 9.74017 3.27919 10.1541 2.76953 10.1543C2.25973 10.1543 1.8457 9.74027 1.8457 9.23047C1.84587 8.72081 2.25983 8.30762 2.76953 8.30762ZM8.8584 3.0791C8.13743 2.35842 6.96893 2.3583 6.24805 3.0791L5.53809 3.78906V9.01074L8.8584 5.69043C9.57937 4.96946 9.57937 3.80007 8.8584 3.0791Z" fill="var(--fill-0, #FF0AE3)"/>
</svg>
