<svg preserveAspectRatio="none" width="100%" height="100%" overflow="visible" style="display: block;" viewBox="0 0 386 122" fill="none" xmlns="http://www.w3.org/2000/svg">
<path id="Vector" d="M0 4.97H69.44V27.55H26.41V43.88H64.47V66.46H26.41V100.11H0V4.97ZM100.54 11.22C100.54 18.04 95.71 22.72 87.62 22.72C79.53 22.72 74.56 18.18 74.56 11.22C74.56 4.26 79.81 0 87.62 0C95.43 0 100.54 4.54 100.54 11.22ZM75.26 25.99H100.11V100.11H75.26V25.99ZM139.44 24.71C145.26 24.71 149.95 25.42 152.08 26.13V45.44C150.38 45.01 147.11 44.73 144.41 44.73C139.16 44.73 136.17 45.16 133.48 46.15V100.11H108.63V30.96C117.58 26.98 126.52 24.71 139.44 24.71ZM225.78 60.92C225.78 64.33 225.5 68.02 225.07 70.86H178.64C181.48 77.96 188.3 81.37 198.95 81.37C206.62 81.37 213.29 79.95 219.97 76.83L220.25 96.57C213.01 100.26 205.2 101.54 195.12 101.54C170.27 101.54 153.66 87.77 153.66 62.77C153.66 39.91 169.56 24.71 190.58 24.71C211.6 24.71 225.79 38.63 225.79 60.92H225.78ZM202.63 54.67C202.06 48 197.94 43.31 190.7 43.31C183.46 43.31 179.34 47 177.78 54.67H202.63ZM236.29 100.11V46.43H227.06V26.69H236.29C236.72 11.07 246.09 1.27 262.7 1.27C266.39 1.27 269.66 1.7 271.65 2.26L271.51 20.29C270.52 20.15 269.38 20.01 267.82 20.01C263.56 20.01 261.15 22.14 261.15 26.68H272.08V46.42H261.15V100.1H236.3L236.29 100.11ZM301.32 1.99V73.42C301.32 78.53 302.88 80.38 307 80.38C308.28 80.38 308.85 80.24 309.84 79.95V99.97C306.57 101.39 302.03 101.53 298.48 101.53C283.43 101.53 276.61 94.15 276.61 78.67V1.99H301.32ZM346.48 67.73C350.6 53.39 355 39.61 359.12 25.98H385.11L349.61 121.97H322.77L333.85 95.98L306.02 25.98H332.72C337.26 39.47 341.95 53.24 346.49 67.73H346.48Z" fill="var(--fill-0, white)"/>
</svg>
