<svg preserveAspectRatio="none" width="100%" height="100%" overflow="visible" style="display: block;" viewBox="0 0 412 100" fill="none" xmlns="http://www.w3.org/2000/svg">
<path id="Vector" d="M39.9 2.84H67.87L107.35 97.98H77.81L52.82 34.79L36.35 76.25H55.95L63.76 97.98H0L39.9 2.84ZM140.29 22.58C143.13 22.58 146.25 22.86 149.38 23.57V0H174.09V93.72C168.41 96.28 156.2 99.4 143.99 99.4C121.84 99.4 102.81 86.76 102.81 61.63C102.81 36.5 121.13 22.58 140.3 22.58H140.29ZM143.42 79.09C145.69 79.09 147.54 78.66 149.38 78.1V43.59C147.53 42.88 145.69 42.6 143.27 42.6C135.18 42.6 127.65 48.56 127.65 61.2C127.65 73.84 135.32 79.09 143.41 79.09H143.42ZM218.11 22.58C238.7 22.58 256.17 36.5 256.17 60.92C256.17 85.34 238.7 99.26 218.11 99.26C197.52 99.26 179.91 85.34 179.91 60.92C179.91 36.5 197.23 22.58 218.11 22.58ZM218.11 78.67C225.21 78.67 231.74 72.99 231.74 60.92C231.74 48.85 225.21 43.17 218.11 43.17C211.01 43.17 204.62 48.85 204.62 60.92C204.62 72.99 210.73 78.67 218.11 78.67ZM262.13 0H286.98V23.57C289.96 23 293.09 22.58 296.21 22.58C315.52 22.58 333.41 35.22 333.41 59.93C333.41 86.06 314.38 99.26 291.8 99.26C282.14 99.26 269.79 97.27 262.12 93.72V0H262.13ZM292.37 78.95C300.89 78.95 308.7 72.84 308.7 60.21C308.7 48.42 301.03 42.89 292.8 42.89C290.53 42.89 288.68 43.17 286.98 43.88V77.96C288.4 78.53 290.25 78.95 292.38 78.95H292.37ZM375.59 22.58C394.19 22.58 411.23 34.51 411.23 58.51C411.23 61.78 411.09 64.9 410.66 68.02H364.37C366.93 76.4 374.31 80.37 383.54 80.37C391.07 80.37 398.02 78.52 405.83 75.12V94.01C398.59 97.7 389.93 99.26 380.98 99.26C357.41 99.26 339.09 85.06 339.09 60.92C339.09 36.78 355.7 22.58 375.58 22.58H375.59ZM388.08 52.54C386.8 44.45 381.41 41.18 375.87 41.18C370.33 41.18 365.79 44.59 363.94 52.54H388.08Z" fill="var(--fill-0, #EB1000)"/>
</svg>
